<?xml version="1.0" encoding="UTF-8"?>
<svg id="_レイヤー_2" data-name="レイヤー 2" xmlns="http://www.w3.org/2000/svg" viewBox="0 0 935.34 934.42">
  <g id="Logo">
    <g id="Logo-2" data-name="Logo">
      <circle cx="487.05" cy="478.54" r="421.87" fill="#f90101"/>
      <path d="M421.88,115.67c53.59,0,105.56,10.49,154.47,31.18,47.26,19.99,89.7,48.61,126.16,85.06,36.46,36.46,65.08,78.9,85.06,126.16,20.69,48.91,31.18,100.89,31.18,154.47s-10.49,105.56-31.18,154.47c-19.99,47.26-48.61,89.7-85.06,126.16-36.46,36.46-78.9,65.08-126.16,85.06-48.91,20.69-100.89,31.18-154.47,31.18s-105.56-10.49-154.47-31.18c-47.26-19.99-89.7-48.61-126.16-85.06-36.46-36.46-65.08-78.9-85.06-126.16-20.69-48.91-31.18-100.89-31.18-154.47s10.49-105.56,31.18-154.47c19.99-47.26,48.61-89.7,85.06-126.16,36.46-36.46,78.9-65.08,126.16-85.06,48.91-20.69,100.89-31.18,154.47-31.18M421.88,90.67C188.88,90.67,0,279.55,0,512.55s188.88,421.88,421.88,421.88,421.88-188.88,421.88-421.88S654.87,90.67,421.88,90.67h0Z" fill="#252422"/>
      <path d="M129.9,372.63l43.71-10.69,9.9,152-43.71,10.69-9.9-152ZM217.27,421.53l1.01,15.71-16.85-.51c16.03-3.92,28.65-6.15,37.87-6.69,9.22-.54,15.94,1.16,20.17,5.11,4.22,3.95,6.61,10.91,7.17,20.89.45,7.44-1.02,14.41-4.41,20.9-3.39,6.49-9.06,12.25-17.01,17.28-7.95,5.03-18.56,9.17-31.84,12.42l-58.28,14.25-1.86-27.6,58.04-14.2c4.69-1.15,8.08-3.43,10.16-6.86s2.95-7.58,2.61-12.48c-.19-3.56-.8-6.41-1.84-8.56-1.04-2.15-2.71-3.54-5.01-4.18-2.3-.64-5.48-.46-9.52.53l-53.43,13.07-1.74-27.11,47.84-11.7c4.37-1.07,7.83-2.52,10.39-4.34,2.55-1.82,4.38-4.2,5.46-7.13,1.09-2.92,1.44-6.57,1.06-10.94-.45-6.07-1.97-10.16-4.55-12.27-2.58-2.11-6.86-2.44-12.85-.98l-50.75,12.41-1.97-30.15,49.54-12.12c19.75-4.83,34.4-4.9,43.96-.2,9.55,4.7,14.82,14.31,15.8,28.82.52,7.77-1.34,14.53-5.59,20.28-4.25,5.76-10.58,10.78-18.96,15.06-8.39,4.28-18.7,8.09-30.92,11.42l16.3-10.16Z" fill="#f2f2f2"/>
      <path d="M301.72,415.94l8.57-.9-5.36,11.13c1.43-9.12,2.99-16.45,4.7-21.99,1.7-5.54,3.51-9.85,5.43-12.94,1.92-3.08,3.96-5.27,6.14-6.56,2.17-1.29,4.46-2.19,6.86-2.69l.86-.18,1.03,34.83-.86.18c-6.4,1.34-11.19,2.94-14.37,4.8-3.19,1.86-5.24,4.29-6.17,7.28-.92,2.99-1.34,6.99-1.25,11.97l1.08,32.49-29.12,6.09-2.74-84.89,25.69-5.38,1.39,40.83-1.87-14.09Z" fill="#f2f2f2"/>
      <path d="M368.65,385.55l8.58-.8-5.49,11.07c1.54-9.1,3.19-16.41,4.96-21.93,1.77-5.52,3.63-9.81,5.58-12.87,1.95-3.06,4.02-5.22,6.21-6.48,2.19-1.26,4.49-2.13,6.89-2.61l.86-.17.62,34.84-.86.17c-6.41,1.26-11.22,2.8-14.43,4.62-3.21,1.82-5.29,4.22-6.25,7.21-.96,2.98-1.42,6.97-1.39,11.96l.69,32.5-29.19,5.75-1.73-84.91,25.76-5.07.91,40.84-1.71-14.11Z" fill="#f2f2f2"/>
      <path d="M442.93,450.64l-29.22,5.6-1.3-84.92,29.22-5.6,1.3,84.92ZM441.5,353.8l-29.22,5.6-.33-22.21,29.22-5.6.33,22.21Z" fill="#f2f2f2"/>
      <path d="M487.62,386.57l8.84-1.22-7,13.33c1.59-7.28,3.92-13.9,6.98-19.86,3.07-5.96,6.73-10.82,10.98-14.58,4.25-3.76,8.8-5.98,13.66-6.65,4.27-.59,7.87.07,10.78,1.96,2.91,1.9,5.12,4.89,6.62,8.98,1.5,4.09,2.15,9.22,1.94,15.37l-2.21,58.42-29.47,4.05,1.97-49.91c.04-2.24-.24-4.09-.85-5.54-.61-1.44-1.49-2.5-2.64-3.17-1.15-.66-2.59-.88-4.33-.64-2.43.33-4.58,1.37-6.46,3.1-1.88,1.73-3.35,3.93-4.39,6.61-1.05,2.68-1.64,5.61-1.79,8.81l-1.61,43.5-29.47,4.05,3.17-84.87,27.74-3.81-1.13,31.6-1.31-9.54Z" fill="#f2f2f2"/>
      <path d="M637.77,456.11c-.26,6.75-1.55,12.78-3.89,18.11-2.34,5.32-6.17,9.76-11.52,13.32-5.34,3.56-12.76,5.98-22.23,7.27-9.71,1.33-17.52,1.51-23.42.55-5.9-.96-10.3-2.98-13.19-6.06-2.89-3.08-4.84-6.96-5.83-11.66l28.44-9c.69,2.49,2.01,4.17,3.95,5.02,1.94.85,4.36,1.08,7.25.69,2.89-.39,5.07-1.22,6.55-2.48,1.47-1.26,2.55-3.09,3.23-5.47.67-2.39,1.05-5.47,1.12-9.25l1.89-45.65,1.2-33.9,29.48-4.02-3.04,82.54ZM558.23,427.23c.64-15.16,3.29-26.79,7.95-34.91,4.66-8.11,10.63-12.67,17.92-13.66,5.2-.71,9.66.51,13.39,3.65,3.72,3.14,6.73,7.44,9,12.9,2.27,5.46,3.78,11.32,4.52,17.57l-1.18,2.99c.16-4.02-.74-7.17-2.7-9.43-1.96-2.26-4.67-3.16-8.14-2.69-3.93.54-6.92,2.33-8.98,5.38-2.06,3.05-3.22,7.89-3.49,14.52-.25,5.92.49,10.09,2.24,12.5,1.74,2.41,4.75,3.33,9.03,2.74,2.08-.28,4-1.08,5.77-2.38,1.77-1.3,3.19-2.94,4.28-4.91,1.08-1.97,1.65-4.08,1.7-6.32l.47.82c-1.07,5.09-2.85,10.37-5.35,15.83-2.49,5.46-5.7,10.2-9.63,14.21-3.93,4.01-8.66,6.39-14.21,7.15-6.94.95-12.54-1.5-16.81-7.33-4.27-5.83-6.19-15.37-5.76-28.62ZM612.29,437.69l-6.94.95,4.45-11.38,2.95-.4-.46,10.84ZM612.52,409.57l-2.95.4-2.85-11.8,6.24-.85-.45,12.25Z" fill="#f2f2f2"/>
      <path d="M669.81,387.16l37.28,2.04-13.96,65.87-35.45-11.81,12.14-56.1ZM710.15,373.89l-35.87-.32L808.88,0l126.46,61.38-225.19,312.51Z" fill="#252422"/>
      <path d="M179.67,564.98l43.71-10.69,9.9,152-43.71,10.69-9.9-152ZM267.04,613.87l1.01,15.71-16.85-.51c16.03-3.92,28.65-6.15,37.87-6.69,9.22-.54,15.94,1.16,20.17,5.11,4.22,3.95,6.61,10.91,7.17,20.89.45,7.44-1.02,14.41-4.41,20.9-3.39,6.49-9.06,12.25-17.01,17.28-7.95,5.03-18.56,9.17-31.84,12.42l-58.28,14.25-1.86-27.6,58.04-14.2c4.69-1.15,8.08-3.43,10.16-6.86,2.08-3.42,2.95-7.58,2.61-12.48-.19-3.56-.8-6.41-1.84-8.56-1.04-2.15-2.71-3.54-5.01-4.18-2.3-.64-5.48-.46-9.52.53l-53.43,13.07-1.74-27.11,47.84-11.7c4.37-1.07,7.83-2.52,10.39-4.34,2.55-1.82,4.38-4.2,5.46-7.13,1.09-2.92,1.44-6.57,1.06-10.94-.45-6.07-1.97-10.16-4.55-12.27-2.58-2.11-6.86-2.44-12.85-.98l-50.75,12.41-1.97-30.15,49.54-12.12c19.75-4.83,34.4-4.9,43.96-.2,9.55,4.7,14.82,14.31,15.8,28.82.52,7.77-1.34,14.53-5.59,20.28-4.25,5.76-10.58,10.78-18.96,15.06-8.39,4.28-18.7,8.09-30.92,11.42l16.3-10.16Z" fill="#f2f2f2"/>
      <path d="M352.24,599.5l8.57-.9-5.36,11.13c1.43-9.12,2.99-16.45,4.7-21.99,1.7-5.54,3.51-9.85,5.43-12.94,1.92-3.08,3.96-5.27,6.14-6.56,2.17-1.29,4.46-2.19,6.86-2.69l.86-.18,1.03,34.83-.86.18c-6.4,1.34-11.19,2.94-14.37,4.8-3.19,1.86-5.24,4.29-6.17,7.28-.92,2.99-1.34,6.99-1.25,11.97l1.08,32.49-29.12,6.09-2.74-84.89,25.69-5.38,1.39,40.83-1.87-14.09Z" fill="#f2f2f2"/>
      <path d="M416.96,571.91l8.58-.8-5.49,11.07c1.54-9.1,3.19-16.41,4.96-21.93,1.77-5.52,3.63-9.81,5.58-12.87,1.95-3.06,4.02-5.22,6.21-6.48,2.19-1.26,4.49-2.13,6.89-2.61l.86-.17.62,34.84-.86.17c-6.41,1.26-11.22,2.8-14.43,4.62-3.21,1.82-5.29,4.22-6.25,7.21-.96,2.98-1.42,6.97-1.39,11.96l.69,32.5-29.19,5.75-1.73-84.91,25.76-5.07.91,40.84-1.71-14.11Z" fill="#f2f2f2"/>
      <path d="M487.83,637.6l-29.43,4.36,2.29-84.9,29.43-4.36-2.29,84.9ZM490.49,540.79l-29.43,4.36.61-22.2,29.43-4.36-.61,22.2Z" fill="#f2f2f2"/>
      <path d="M531.92,573.93l8.84-1.22-7,13.33c1.59-7.28,3.92-13.9,6.98-19.86,3.07-5.96,6.73-10.82,10.98-14.58,4.25-3.76,8.8-5.98,13.66-6.65,4.27-.59,7.87.07,10.78,1.96,2.91,1.9,5.12,4.89,6.62,8.98,1.5,4.09,2.15,9.22,1.94,15.37l-2.21,58.42-29.47,4.05,1.97-49.91c.04-2.24-.24-4.09-.85-5.54-.61-1.44-1.49-2.5-2.64-3.17-1.15-.66-2.59-.88-4.33-.64-2.43.33-4.58,1.37-6.46,3.1-1.88,1.73-3.35,3.93-4.39,6.61-1.05,2.68-1.64,5.61-1.79,8.81l-1.61,43.5-29.47,4.05,3.17-84.87,27.74-3.81-1.13,31.6-1.31-9.54Z" fill="#f2f2f2"/>
      <path d="M679.07,643.47c-.26,6.75-1.55,12.78-3.89,18.11-2.34,5.32-6.17,9.76-11.52,13.32-5.34,3.56-12.76,5.98-22.23,7.27-9.71,1.33-17.52,1.51-23.42.55-5.9-.96-10.3-2.98-13.19-6.06-2.89-3.08-4.84-6.96-5.83-11.66l28.44-9c.69,2.49,2.01,4.17,3.95,5.02,1.94.85,4.36,1.08,7.25.69,2.89-.39,5.07-1.22,6.55-2.48,1.47-1.26,2.55-3.09,3.23-5.47.67-2.39,1.05-5.47,1.12-9.25l1.89-45.65,1.2-33.9,29.48-4.02-3.04,82.54ZM599.53,614.59c.64-15.16,3.29-26.79,7.95-34.91,4.66-8.11,10.63-12.67,17.92-13.66,5.2-.71,9.66.51,13.39,3.65,3.72,3.14,6.73,7.44,9,12.9,2.27,5.46,3.78,11.32,4.52,17.57l-1.18,2.99c.16-4.02-.74-7.17-2.7-9.43-1.96-2.26-4.67-3.16-8.14-2.69-3.93.54-6.92,2.33-8.98,5.38-2.06,3.05-3.22,7.89-3.49,14.52-.25,5.92.49,10.09,2.24,12.5,1.74,2.41,4.75,3.33,9.03,2.74,2.08-.28,4-1.08,5.77-2.38,1.77-1.3,3.19-2.94,4.28-4.91,1.08-1.97,1.65-4.08,1.7-6.32l.47.82c-1.07,5.09-2.85,10.37-5.35,15.83-2.49,5.46-5.7,10.2-9.63,14.21-3.93,4.01-8.66,6.39-14.21,7.15-6.94.95-12.54-1.5-16.81-7.33-4.27-5.83-6.19-15.37-5.76-28.62ZM653.6,625.05l-6.94.95,4.45-11.38,2.95-.4-.46,10.84ZM653.82,596.93l-2.95.4-2.85-11.8,6.24-.85-.45,12.25Z" fill="#f2f2f2"/>
      <path d="M708.75,597.51h30.45s-12.18,58.99-12.18,58.99l-26.04-8.24,7.77-50.74ZM742.5,564.57l-33.75,1.83,37.8-144.64,48.25.2-52.3,142.61Z" fill="#f2f2f2"/>
    </g>
  </g>
</svg>