<?xml version="1.0" encoding="UTF-8"?>
<svg id="_レイヤー_2" data-name="レイヤー 2" xmlns="http://www.w3.org/2000/svg" viewBox="0 0 745.6 332.56">
  <g id="_レイヤー_1-2" data-name="レイヤー 1">
    <g>
      <path d="M5,319.49l.9-79.3V95.94c0-2.24,1.34-3.58,3.58-3.58h57.79c2.24,0,3.36,1.12,3.36,3.58l-1.12,25.54c16.13-22.4,36.74-34.5,66.3-34.5,32.26,0,55.55,13.89,66.3,43.46,19.71-34.94,42.56-43.46,69.89-43.46,46.59,0,73.47,28.22,73.47,89.6v63.62l.9,79.3c0,2.46-1.34,3.58-3.58,3.58h-60.93c-2.24,0-3.58-1.12-3.58-3.58l.9-79.3v-62.72c0-27.78-11.2-41.22-29.57-41.22s-40.32,24.64-40.32,71.68v32.26l.9,79.3c0,2.46-1.34,3.58-3.58,3.58h-60.93c-2.24,0-3.58-1.12-3.58-3.58l.9-79.3v-62.72c0-27.78-10.75-41.22-29.57-41.22s-40.32,24.64-40.32,71.68v32.26l.9,79.3c0,2.46-1.34,3.58-3.58,3.58H8.58c-2.24,0-3.58-1.12-3.58-3.58Z" fill="none" stroke="#fff" stroke-miterlimit="10" stroke-width="10"/>
      <path d="M386.69,319.49l1.79-98.11v-81.54h-31.36c-2.24,0-3.58-1.34-3.58-3.58v-40.32c0-2.24,1.34-3.58,3.58-3.58h31.36v-15.23c0-52.42,36.74-72.13,75.26-72.13,14.34,0,31.14,2.24,42.56,4.03,2.02.22,3.14,1.79,3.14,3.81v39.65c0,2.46-1.57,3.58-4.03,2.91-6.72-1.57-15.23-2.46-25.98-2.46-14.78,0-25.09,7.17-25.09,30.46v8.96h51.52c2.24,0,3.58,1.34,3.58,3.58v40.32c0,2.24-1.34,3.58-3.58,3.58h-51.52v81.54l1.79,98.11c0,2.46-1.34,3.58-3.58,3.58h-62.27c-2.24,0-3.58-1.12-3.58-3.58Z" fill="none" stroke="#fff" stroke-miterlimit="10" stroke-width="10"/>
      <path d="M506.3,208.39c0-66.75,38.53-120.51,101.25-120.51,28.22,0,50.18,9.86,65.86,28.22V13.06c0-2.24,1.34-3.58,3.58-3.58h60.03c2.24,0,3.58,1.12,3.58,3.58l-.45,153.22.45,153.21c0,2.46-1.34,3.58-3.58,3.58h-60.48c-2.24,0-3.58-1.34-3.36-3.58l1.12-23.3c-16.13,19.71-38.98,31.36-68.1,31.36-65.41,0-99.9-51.97-99.9-119.17ZM675.64,209.73c.45-49.73-17.02-77.06-49.28-77.5-34.05-.9-51.52,25.09-51.52,73.02,0,51.97,17.92,78.4,50.18,77.95,32.7,0,50.18-24.64,50.62-73.47Z" fill="none" stroke="#fff" stroke-miterlimit="10" stroke-width="10"/>
    </g>
  </g>
</svg>