<?xml version="1.0" encoding="UTF-8"?>
<svg id="_レイヤー_2" data-name="レイヤー 2" xmlns="http://www.w3.org/2000/svg" viewBox="0 0 140.78 20.19">
  <defs>
    <style>
      .cls-1 {
        fill: #fbf6e3;
      }
    </style>
  </defs>
  <g id="Chocopoo_2" data-name="Chocopoo 2">
    <g>
      <path class="cls-1" d="M13.6,6.43c-.36-.72-.91-1.28-1.66-1.66-.75-.38-1.67-.58-2.74-.58s-2.08.23-2.88.7c-.81.47-1.41,1.14-1.82,2.03s-.62,1.94-.62,3.17.21,2.29.64,3.18c.43.9,1.07,1.58,1.91,2.04s1.85.7,3.02.7c.88,0,1.64-.13,2.29-.38.65-.26,1.18-.64,1.61-1.15.42-.51.7-1.14.85-1.89.02-.05.03-.1.03-.14l3.73.77c-.18,1.46-.64,2.72-1.39,3.76-.74,1.04-1.74,1.84-2.99,2.39s-2.7.82-4.35.82c-1.94,0-3.59-.39-4.97-1.18-1.37-.79-2.42-1.93-3.16-3.44-.73-1.51-1.1-3.32-1.1-5.45s.36-3.94,1.07-5.46c.71-1.52,1.77-2.68,3.16-3.47s3.08-1.19,5.08-1.19c1.81,0,3.37.34,4.66,1.03s2.29,1.66,2.96,2.94c.68,1.27.98,2.79.91,4.57l-3.81.52c.07-1.02-.07-1.9-.43-2.62Z"/>
      <path class="cls-1" d="M31.88,19.7v-8.31h-8.01v8.31h-4.88V.52h4.88v8.64h8.01V.52h4.86v19.18h-4.86Z"/>
      <path class="cls-1" d="M41.23,19.26c-1.14-.59-2.02-1.43-2.62-2.54-.6-1.11-.91-2.41-.91-3.91s.3-2.83.91-3.92,1.49-1.94,2.65-2.52c1.16-.59,2.56-.88,4.18-.88s2.89.29,4.02.88c1.13.59,1.99,1.43,2.59,2.52s.91,2.41.91,3.92-.3,2.83-.89,3.94c-.59,1.11-1.47,1.95-2.62,2.52-1.15.58-2.52.86-4.09.86s-2.99-.29-4.13-.88ZM47.36,15.68c.57-.26,1-.64,1.3-1.14.3-.49.45-1.07.45-1.73s-.15-1.23-.45-1.73c-.3-.49-.74-.87-1.3-1.14-.57-.26-1.24-.4-2.03-.4s-1.44.13-2,.4c-.57.27-1,.64-1.3,1.12-.3.48-.45,1.07-.45,1.74s.16,1.23.47,1.73c.31.49.75.87,1.32,1.14.57.27,1.23.4,2,.4s1.44-.13,2-.4Z"/>
      <path class="cls-1" d="M67.37,6.43c-.36-.72-.91-1.28-1.66-1.66-.75-.38-1.66-.58-2.74-.58s-2.08.23-2.88.7c-.81.47-1.41,1.14-1.82,2.03s-.62,1.94-.62,3.17.21,2.29.64,3.18c.43.9,1.07,1.58,1.91,2.04.84.47,1.85.7,3.02.7.88,0,1.64-.13,2.29-.38.65-.26,1.18-.64,1.61-1.15.42-.51.7-1.14.85-1.89.02-.05.03-.1.03-.14l3.73.77c-.18,1.46-.64,2.72-1.39,3.76-.74,1.04-1.74,1.84-2.99,2.39-1.25.55-2.7.82-4.35.82-1.94,0-3.59-.39-4.97-1.18-1.37-.79-2.42-1.93-3.16-3.44-.73-1.51-1.1-3.32-1.1-5.45s.36-3.94,1.07-5.46c.71-1.52,1.77-2.68,3.16-3.47,1.39-.8,3.08-1.19,5.08-1.19,1.81,0,3.37.34,4.66,1.03,1.3.69,2.29,1.66,2.96,2.94.68,1.27.98,2.79.91,4.57l-3.81.52c.07-1.02-.07-1.9-.43-2.62Z"/>
      <path class="cls-1" d="M76.01,19.26c-1.14-.59-2.02-1.43-2.62-2.54-.6-1.11-.91-2.41-.91-3.91s.3-2.83.91-3.92,1.49-1.94,2.65-2.52c1.16-.59,2.56-.88,4.18-.88s2.89.29,4.02.88c1.13.59,1.99,1.43,2.59,2.52s.91,2.41.91,3.92-.3,2.83-.89,3.94c-.59,1.11-1.47,1.95-2.62,2.52-1.15.58-2.52.86-4.09.86s-2.99-.29-4.13-.88ZM82.14,15.68c.57-.26,1-.64,1.3-1.14.3-.49.45-1.07.45-1.73s-.15-1.23-.45-1.73c-.3-.49-.74-.87-1.3-1.14-.57-.26-1.24-.4-2.03-.4s-1.44.13-2,.4c-.57.27-1,.64-1.3,1.12-.3.48-.45,1.07-.45,1.74s.16,1.23.47,1.73c.31.49.75.87,1.32,1.14.57.27,1.23.4,2,.4s1.44-.13,2-.4Z"/>
      <path class="cls-1" d="M88.81,19.7V.52h8.18c2.67,0,4.66.51,5.98,1.52s1.98,2.55,1.98,4.6-.65,3.48-1.96,4.47c-1.31.99-3.23,1.48-5.78,1.48h-4.23v7.11h-4.17ZM100.09,9.7c.71-.47,1.07-1.16,1.07-2.07,0-.73-.16-1.31-.47-1.73-.31-.42-.74-.73-1.29-.92-.55-.19-1.21-.29-1.98-.29h-4.45v5.71h4.14c1.26,0,2.25-.23,2.96-.7Z"/>
      <path class="cls-1" d="M109.94,19.02c-1.45-.79-2.53-1.93-3.25-3.43-.72-1.5-1.08-3.33-1.08-5.49s.36-3.97,1.08-5.47c.72-1.51,1.81-2.66,3.25-3.44,1.44-.79,3.22-1.18,5.32-1.18s3.84.39,5.25,1.18c1.42.79,2.49,1.93,3.22,3.44.73,1.51,1.1,3.33,1.1,5.47s-.37,3.99-1.1,5.49c-.73,1.5-1.81,2.64-3.22,3.43-1.42.79-3.17,1.18-5.25,1.18s-3.88-.39-5.32-1.18ZM119.51,14.53c.99-1,1.48-2.47,1.48-4.43s-.49-3.43-1.48-4.42c-.99-.99-2.41-1.48-4.28-1.48s-3.29.5-4.28,1.5c-.99,1-1.48,2.47-1.48,4.4s.49,3.43,1.48,4.43c.99,1,2.41,1.5,4.28,1.5s3.29-.5,4.28-1.5Z"/>
      <path class="cls-1" d="M129.05,19.26c-1.14-.59-2.02-1.43-2.62-2.54-.6-1.11-.91-2.41-.91-3.91s.3-2.83.91-3.92,1.49-1.94,2.65-2.52c1.16-.59,2.56-.88,4.18-.88s2.89.29,4.02.88c1.13.59,1.99,1.43,2.59,2.52s.91,2.41.91,3.92-.3,2.83-.89,3.94c-.59,1.11-1.47,1.95-2.62,2.52-1.15.58-2.52.86-4.09.86s-2.99-.29-4.13-.88ZM135.18,15.68c.57-.26,1-.64,1.3-1.14.3-.49.45-1.07.45-1.73s-.15-1.23-.45-1.73c-.3-.49-.74-.87-1.3-1.14-.57-.26-1.24-.4-2.03-.4s-1.44.13-2,.4c-.57.27-1,.64-1.3,1.12-.3.48-.45,1.07-.45,1.74s.16,1.23.47,1.73c.31.49.75.87,1.32,1.14.57.27,1.23.4,2,.4s1.44-.13,2-.4Z"/>
    </g>
  </g>
</svg>